<mxfile host="app.diagrams.net" agent="Mozilla/5.0 (Windows NT 10.0; Win64; x64) AppleWebKit/537.36 (KHTML, like Gecko) Chrome/128.0.0.0 Safari/537.36 Edg/128.0.0.0" version="24.7.14">
  <diagram name="第 1 页" id="hT4MuIF2iHeOOK94GY5G">
    <mxGraphModel dx="2066" dy="1141" grid="1" gridSize="10" guides="1" tooltips="1" connect="1" arrows="1" fold="1" page="1" pageScale="1" pageWidth="827" pageHeight="1169" math="0" shadow="0">
      <root>
        <mxCell id="0" />
        <mxCell id="1" parent="0" />
        <mxCell id="2e4fJl39eeag5jgnklha-1" value="" style="swimlane;startSize=0;" vertex="1" parent="1">
          <mxGeometry x="340" y="830" width="200" height="60" as="geometry" />
        </mxCell>
        <mxCell id="2e4fJl39eeag5jgnklha-2" value="智能化数字孪生功率预测平台" style="text;html=1;align=center;verticalAlign=middle;resizable=0;points=[];autosize=1;strokeColor=none;fillColor=none;" vertex="1" parent="2e4fJl39eeag5jgnklha-1">
          <mxGeometry x="10" y="15" width="180" height="30" as="geometry" />
        </mxCell>
        <mxCell id="2e4fJl39eeag5jgnklha-10" value="" style="edgeStyle=orthogonalEdgeStyle;rounded=0;orthogonalLoop=1;jettySize=auto;html=1;" edge="1" parent="1" source="2e4fJl39eeag5jgnklha-4" target="2e4fJl39eeag5jgnklha-6">
          <mxGeometry relative="1" as="geometry" />
        </mxCell>
        <mxCell id="2e4fJl39eeag5jgnklha-4" value="企业内部数据流" style="html=1;whiteSpace=wrap;" vertex="1" parent="1">
          <mxGeometry x="70" y="330" width="130" height="50" as="geometry" />
        </mxCell>
        <mxCell id="2e4fJl39eeag5jgnklha-6" value="数据采集系统" style="html=1;whiteSpace=wrap;" vertex="1" parent="1">
          <mxGeometry x="140" y="420" width="130" height="50" as="geometry" />
        </mxCell>
        <mxCell id="2e4fJl39eeag5jgnklha-11" value="" style="edgeStyle=orthogonalEdgeStyle;rounded=0;orthogonalLoop=1;jettySize=auto;html=1;" edge="1" parent="1" source="2e4fJl39eeag5jgnklha-7" target="2e4fJl39eeag5jgnklha-6">
          <mxGeometry relative="1" as="geometry" />
        </mxCell>
        <mxCell id="2e4fJl39eeag5jgnklha-7" value="气象实况预报数据" style="html=1;whiteSpace=wrap;" vertex="1" parent="1">
          <mxGeometry x="210" y="330" width="130" height="50" as="geometry" />
        </mxCell>
        <mxCell id="2e4fJl39eeag5jgnklha-8" value="frame" style="shape=umlFrame;whiteSpace=wrap;html=1;pointerEvents=0;" vertex="1" parent="1">
          <mxGeometry x="60" y="300" width="290" height="190" as="geometry" />
        </mxCell>
        <mxCell id="2e4fJl39eeag5jgnklha-13" value="" style="edgeStyle=orthogonalEdgeStyle;rounded=0;orthogonalLoop=1;jettySize=auto;html=1;" edge="1" parent="1" source="2e4fJl39eeag5jgnklha-14" target="2e4fJl39eeag5jgnklha-15">
          <mxGeometry relative="1" as="geometry" />
        </mxCell>
        <mxCell id="2e4fJl39eeag5jgnklha-14" value="物理模型" style="html=1;whiteSpace=wrap;" vertex="1" parent="1">
          <mxGeometry x="440" y="330" width="130" height="50" as="geometry" />
        </mxCell>
        <mxCell id="2e4fJl39eeag5jgnklha-15" value="智能化调度算法" style="html=1;whiteSpace=wrap;" vertex="1" parent="1">
          <mxGeometry x="440" y="420" width="270" height="50" as="geometry" />
        </mxCell>
        <mxCell id="2e4fJl39eeag5jgnklha-16" value="" style="edgeStyle=orthogonalEdgeStyle;rounded=0;orthogonalLoop=1;jettySize=auto;html=1;" edge="1" parent="1" source="2e4fJl39eeag5jgnklha-17" target="2e4fJl39eeag5jgnklha-15">
          <mxGeometry relative="1" as="geometry" />
        </mxCell>
        <mxCell id="2e4fJl39eeag5jgnklha-17" value="深度学习模型" style="html=1;whiteSpace=wrap;" vertex="1" parent="1">
          <mxGeometry x="580" y="330" width="130" height="50" as="geometry" />
        </mxCell>
        <mxCell id="2e4fJl39eeag5jgnklha-18" value="frame" style="shape=umlFrame;whiteSpace=wrap;html=1;pointerEvents=0;" vertex="1" parent="1">
          <mxGeometry x="430" y="300" width="290" height="190" as="geometry" />
        </mxCell>
      </root>
    </mxGraphModel>
  </diagram>
</mxfile>
